ffmpeg started on 2025-06-06 at 18:27:22
Report written to "D:\Convert\FFMetrics\reports\psnr_report-6.txt"
Log level: 32
Command line:
ffmpeg -hide_banner -nostdin -i "G:\\\xc0\xed\xe8\xec\xe5\\\xce\xed\xe3\xee\xe8\xed\xe3\xe8\\!_36_\xce\xf1\xe5\xed\xfc_2024\\DreamCast\\\xcf\xf0\xee\xf9\xe0\xe9, \xe6\xe8\xe7\xed\xfc \xe4\xf0\xe0\xea\xee\xed\xe0. \xc7\xe4\xf0\xe0\xe2\xf1\xf2\xe2\xf3\xe9, \xe6\xe8\xe7\xed\xfc \xf7\xe5\xeb\xee\xe2\xe5\xea\xe0\\[DC] Sayonara Ryuusei Konnichiwa Jinsei - 09_Telegram_HEVC.mkv" -i "G:\\\xc0\xed\xe8\xec\xe5\\\xce\xed\xe3\xee\xe8\xed\xe3\xe8\\!_36_\xce\xf1\xe5\xed\xfc_2024\\DreamCast\\\xcf\xf0\xee\xf9\xe0\xe9, \xe6\xe8\xe7\xed\xfc \xe4\xf0\xe0\xea\xee\xed\xe0. \xc7\xe4\xf0\xe0\xe2\xf1\xf2\xe2\xf3\xe9, \xe6\xe8\xe7\xed\xfc \xf7\xe5\xeb\xee\xe2\xe5\xea\xe0\\[DC] Sayonara Ryuusei Konnichiwa Jinsei - 09_Telegram.mp4" -lavfi "[0:v]settb=AVTB,setpts=PTS-STARTPTS,format=pix_fmts=yuv420p10,fps=24000/1001,scale=1920:1080:flags=bicubic[main];[1:v]settb=AVTB,setpts=PTS-STARTPTS,format=pix_fmts=yuv420p,fps=24000/1001,scale=1920:1080:flags=bicubic[ref];[main][ref]psnr=eof_action=endall:stats_file='D\\:/Convert/FFMetrics/logs/psnr_logfile-6.txt'" -f null -
Input #0, matroska,webm, from 'G:\Аниме\Онгоинги\!_36_Осень_2024\DreamCast\Прощай, жизнь дракона. Здравствуй, жизнь человека\[DC] Sayonara Ryuusei Konnichiwa Jinsei - 09_Telegram_HEVC.mkv':
  Metadata:
    COMPATIBLE_BRANDS: isomiso2avc1mp41
    MAJOR_BRAND     : isom
    MINOR_VERSION   : 512
    ENCODER         : Lavf61.7.100
  Duration: 00:24:16.85, start: -0.021000, bitrate: 1461 kb/s
  Stream #0:0: Video: hevc (Main 10), yuv420p10le(tv, bt709, progressive), 1920x1080 [SAR 1:1 DAR 16:9], 23.98 fps, 23.98 tbr, 1k tbn (default)
      Metadata:
        HANDLER_NAME    : VideoHandler
        VENDOR_ID       : [0][0][0][0]
        ENCODER         : Lavc61.19.100 libx265
        BPS             : 1264297
        DURATION        : 00:24:16.579708333
        NUMBER_OF_FRAMES: 34923
        NUMBER_OF_BYTES : 230193678
        _STATISTICS_WRITING_APP: mkvpropedit v66.0.0 ('Josie') 64-bit
        _STATISTICS_WRITING_DATE_UTC: 2025-06-03 10:46:37
        _STATISTICS_TAGS: BPS DURATION NUMBER_OF_FRAMES NUMBER_OF_BYTES
  Stream #0:1: Audio: aac (LC), 48000 Hz, stereo, fltp (default)
      Metadata:
        HANDLER_NAME    : SoundHandler
        VENDOR_ID       : [0][0][0][0]
        ENCODER         : Lavc61.19.100 aac
        BPS             : 193527
        DURATION        : 00:24:16.853000000
        NUMBER_OF_FRAMES: 68291
        NUMBER_OF_BYTES : 35242604
        _STATISTICS_WRITING_APP: mkvpropedit v66.0.0 ('Josie') 64-bit
        _STATISTICS_WRITING_DATE_UTC: 2025-06-03 10:46:37
        _STATISTICS_TAGS: BPS DURATION NUMBER_OF_FRAMES NUMBER_OF_BYTES
Input #1, mov,mp4,m4a,3gp,3g2,mj2, from 'G:\Аниме\Онгоинги\!_36_Осень_2024\DreamCast\Прощай, жизнь дракона. Здравствуй, жизнь человека\[DC] Sayonara Ryuusei Konnichiwa Jinsei - 09_Telegram.mp4':
  Metadata:
    major_brand     : isom
    minor_version   : 512
    compatible_brands: isomiso2avc1mp41
    encoder         : Lavf61.1.100
  Duration: 00:24:16.79, start: 0.000000, bitrate: 3890 kb/s
  Stream #1:0[0x1](und): Video: h264 (High) (avc1 / 0x31637661), yuv420p(tv, bt709, progressive), 1920x1080 [SAR 1:1 DAR 16:9], 3742 kb/s, 23.98 fps, 23.98 tbr, 24k tbn (default)
      Metadata:
        handler_name    : VideoHandler
        vendor_id       : [0][0][0][0]
        encoder         : Lavc61.3.100 h264_qsv
  Stream #1:1[0x2](und): Audio: aac (HE-AACv2) (mp4a / 0x6134706D), 48000 Hz, stereo, fltp, 144 kb/s (default)
      Metadata:
        handler_name    : SoundHandler
        vendor_id       : [0][0][0][0]
Stream mapping:
  Stream #0:0 (hevc) -> settb:default
  Stream #1:0 (h264) -> settb:default
  psnr:default -> Stream #0:0 (wrapped_avframe)
  Stream #0:1 -> #0:1 (aac (native) -> pcm_s16le (native))
Output #0, null, to 'pipe:':
  Metadata:
    COMPATIBLE_BRANDS: isomiso2avc1mp41
    MAJOR_BRAND     : isom
    MINOR_VERSION   : 512
    encoder         : Lavf61.7.100
  Stream #0:0: Video: wrapped_avframe, yuv420p10le(tv, bt709, progressive), 1920x1080 [SAR 1:1 DAR 16:9], q=2-31, 200 kb/s, 23.98 fps, 23.98 tbn
      Metadata:
        encoder         : Lavc61.19.100 wrapped_avframe
  Stream #0:1: Audio: pcm_s16le, 48000 Hz, stereo, s16, 1536 kb/s (default)
      Metadata:
        HANDLER_NAME    : SoundHandler
        VENDOR_ID       : [0][0][0][0]
        _STATISTICS_TAGS: BPS DURATION NUMBER_OF_FRAMES NUMBER_OF_BYTES
        BPS             : 193527
        DURATION        : 00:24:16.853000000
        NUMBER_OF_FRAMES: 68291
        NUMBER_OF_BYTES : 35242604
        _STATISTICS_WRITING_APP: mkvpropedit v66.0.0 ('Josie') 64-bit
        _STATISTICS_WRITING_DATE_UTC: 2025-06-03 10:46:37
        encoder         : Lavc61.19.100 pcm_s16le
frame=  183 fps=0.0 q=-0.0 size=N/A time=00:00:07.63 bitrate=N/A speed=14.6x    frame=  429 fps=415 q=-0.0 size=N/A time=00:00:17.89 bitrate=N/A speed=17.3x    frame=  692 fps=443 q=-0.0 size=N/A time=00:00:28.86 bitrate=N/A speed=18.5x    frame=  959 fps=463 q=-0.0 size=N/A time=00:00:39.99 bitrate=N/A speed=19.3x    frame= 1225 fps=475 q=-0.0 size=N/A time=00:00:51.09 bitrate=N/A speed=19.8x    frame= 1518 fps=489 q=-0.0 size=N/A time=00:01:03.31 bitrate=N/A speed=20.4x    frame= 1786 fps=495 q=-0.0 size=N/A time=00:01:14.49 bitrate=N/A speed=20.6x    frame= 2051 fps=496 q=-0.0 size=N/A time=00:01:25.54 bitrate=N/A speed=20.7x    frame= 2286 fps=493 q=-0.0 size=N/A time=00:01:35.34 bitrate=N/A speed=20.6x    frame= 2491 fps=482 q=-0.0 size=N/A time=00:01:43.89 bitrate=N/A speed=20.1x    frame= 2706 fps=476 q=-0.0 size=N/A time=00:01:52.86 bitrate=N/A speed=19.8x    frame= 2900 fps=467 q=-0.0 size=N/A time=00:02:00.95 bitrate=N/A speed=19.5x    frame= 3109 fps=462 q=-0.0 size=N/A time=00:02:09.67 bitrate=N/A speed=19.3x    frame= 3298 fps=456 q=-0.0 size=N/A time=00:02:17.55 bitrate=N/A speed=  19x    frame= 3487 fps=449 q=-0.0 size=N/A time=00:02:25.43 bitrate=N/A speed=18.7x    frame= 3704 fps=448 q=-0.0 size=N/A time=00:02:34.48 bitrate=N/A speed=18.7x    frame= 3913 fps=445 q=-0.0 size=N/A time=00:02:43.20 bitrate=N/A speed=18.6x    frame= 4151 fps=446 q=-0.0 size=N/A time=00:02:53.13 bitrate=N/A speed=18.6x    frame= 4363 fps=444 q=-0.0 size=N/A time=00:03:01.97 bitrate=N/A speed=18.5x    frame= 4598 fps=445 q=-0.0 size=N/A time=00:03:11.77 bitrate=N/A speed=18.6x    frame= 4860 fps=448 q=-0.0 size=N/A time=00:03:22.70 bitrate=N/A speed=18.7x    frame= 5117 fps=450 q=-0.0 size=N/A time=00:03:33.42 bitrate=N/A speed=18.8x    frame= 5376 fps=452 q=-0.0 size=N/A time=00:03:44.22 bitrate=N/A speed=18.9x    frame= 5629 fps=454 q=-0.0 size=N/A time=00:03:54.77 bitrate=N/A speed=18.9x    frame= 5887 fps=456 q=-0.0 size=N/A time=00:04:05.53 bitrate=N/A speed=  19x    frame= 6119 fps=455 q=-0.0 size=N/A time=00:04:15.21 bitrate=N/A speed=  19x    frame= 6364 fps=456 q=-0.0 size=N/A time=00:04:25.43 bitrate=N/A speed=  19x    frame= 6617 fps=458 q=-0.0 size=N/A time=00:04:35.98 bitrate=N/A speed=19.1x    frame= 6884 fps=460 q=-0.0 size=N/A time=00:04:47.12 bitrate=N/A speed=19.2x    frame= 7146 fps=461 q=-0.0 size=N/A time=00:04:58.04 bitrate=N/A speed=19.2x    frame= 7409 fps=463 q=-0.0 size=N/A time=00:05:09.01 bitrate=N/A speed=19.3x    frame= 7668 fps=464 q=-0.0 size=N/A time=00:05:19.81 bitrate=N/A speed=19.4x    frame= 7900 fps=464 q=-0.0 size=N/A time=00:05:29.49 bitrate=N/A speed=19.3x    frame= 8112 fps=462 q=-0.0 size=N/A time=00:05:38.33 bitrate=N/A speed=19.3x    frame= 8313 fps=460 q=-0.0 size=N/A time=00:05:46.72 bitrate=N/A speed=19.2x    frame= 8538 fps=459 q=-0.0 size=N/A time=00:05:56.10 bitrate=N/A speed=19.2x    frame= 8770 fps=459 q=-0.0 size=N/A time=00:06:05.78 bitrate=N/A speed=19.2x    frame= 8994 fps=458 q=-0.0 size=N/A time=00:06:15.12 bitrate=N/A speed=19.1x    frame= 9206 fps=457 q=-0.0 size=N/A time=00:06:23.96 bitrate=N/A speed=19.1x    frame= 9482 fps=459 q=-0.0 size=N/A time=00:06:35.47 bitrate=N/A speed=19.2x    frame= 9736 fps=460 q=-0.0 size=N/A time=00:06:46.07 bitrate=N/A speed=19.2x    frame=10015 fps=462 q=-0.0 size=N/A time=00:06:57.70 bitrate=N/A speed=19.3x    frame=10258 fps=462 q=-0.0 size=N/A time=00:07:07.84 bitrate=N/A speed=19.3x    frame=10486 fps=461 q=-0.0 size=N/A time=00:07:17.35 bitrate=N/A speed=19.2x    frame=10693 fps=460 q=-0.0 size=N/A time=00:07:25.98 bitrate=N/A speed=19.2x    frame=10882 fps=458 q=-0.0 size=N/A time=00:07:33.87 bitrate=N/A speed=19.1x    frame=11091 fps=457 q=-0.0 size=N/A time=00:07:42.58 bitrate=N/A speed=19.1x    frame=11321 fps=457 q=-0.0 size=N/A time=00:07:52.18 bitrate=N/A speed=19.1x    frame=11513 fps=455 q=-0.0 size=N/A time=00:08:00.18 bitrate=N/A speed=  19x    frame=11688 fps=453 q=-0.0 size=N/A time=00:08:07.48 bitrate=N/A speed=18.9x    frame=11914 fps=452 q=-0.0 size=N/A time=00:08:16.91 bitrate=N/A speed=18.9x    frame=12199 fps=454 q=-0.0 size=N/A time=00:08:28.79 bitrate=N/A speed=  19x    frame=12451 fps=455 q=-0.0 size=N/A time=00:08:39.31 bitrate=N/A speed=  19x    frame=12727 fps=456 q=-0.0 size=N/A time=00:08:50.82 bitrate=N/A speed=  19x    frame=12948 fps=456 q=-0.0 size=N/A time=00:09:00.03 bitrate=N/A speed=  19x    frame=13158 fps=455 q=-0.0 size=N/A time=00:09:08.79 bitrate=N/A speed=  19x    frame=13416 fps=456 q=-0.0 size=N/A time=00:09:19.55 bitrate=N/A speed=  19x    frame=13653 fps=456 q=-0.0 size=N/A time=00:09:29.44 bitrate=N/A speed=  19x    frame=13910 fps=457 q=-0.0 size=N/A time=00:09:40.16 bitrate=N/A speed=  19x    frame=14178 fps=458 q=-0.0 size=N/A time=00:09:51.34 bitrate=N/A speed=19.1x    frame=14427 fps=458 q=-0.0 size=N/A time=00:10:01.72 bitrate=N/A speed=19.1x    frame=14651 fps=458 q=-0.0 size=N/A time=00:10:11.06 bitrate=N/A speed=19.1x    frame=14878 fps=458 q=-0.0 size=N/A time=00:10:20.53 bitrate=N/A speed=19.1x    frame=15103 fps=457 q=-0.0 size=N/A time=00:10:29.92 bitrate=N/A speed=19.1x    frame=15363 fps=458 q=-0.0 size=N/A time=00:10:40.76 bitrate=N/A speed=19.1x    frame=15627 fps=459 q=-0.0 size=N/A time=00:10:51.77 bitrate=N/A speed=19.1x    frame=15897 fps=460 q=-0.0 size=N/A time=00:11:03.03 bitrate=N/A speed=19.2x    frame=16138 fps=460 q=-0.0 size=N/A time=00:11:13.08 bitrate=N/A speed=19.2x    frame=16318 fps=458 q=-0.0 size=N/A time=00:11:20.59 bitrate=N/A speed=19.1x    frame=16486 fps=456 q=-0.0 size=N/A time=00:11:27.60 bitrate=N/A speed=  19x    frame=16684 fps=455 q=-0.0 size=N/A time=00:11:35.86 bitrate=N/A speed=  19x    frame=16895 fps=455 q=-0.0 size=N/A time=00:11:44.66 bitrate=N/A speed=  19x    frame=17097 fps=454 q=-0.0 size=N/A time=00:11:53.08 bitrate=N/A speed=18.9x    frame=17318 fps=453 q=-0.0 size=N/A time=00:12:02.30 bitrate=N/A speed=18.9x    frame=17519 fps=453 q=-0.0 size=N/A time=00:12:10.68 bitrate=N/A speed=18.9x    frame=17746 fps=452 q=-0.0 size=N/A time=00:12:20.15 bitrate=N/A speed=18.9x    frame=17973 fps=452 q=-0.0 size=N/A time=00:12:29.62 bitrate=N/A speed=18.9x    frame=18189 fps=452 q=-0.0 size=N/A time=00:12:38.63 bitrate=N/A speed=18.8x    frame=18424 fps=452 q=-0.0 size=N/A time=00:12:48.43 bitrate=N/A speed=18.9x    frame=18675 fps=452 q=-0.0 size=N/A time=00:12:58.90 bitrate=N/A speed=18.9x    frame=18926 fps=453 q=-0.0 size=N/A time=00:13:09.37 bitrate=N/A speed=18.9x    frame=19206 fps=454 q=-0.0 size=N/A time=00:13:21.05 bitrate=N/A speed=18.9x    frame=19454 fps=454 q=-0.0 size=N/A time=00:13:31.39 bitrate=N/A speed=18.9x    frame=19715 fps=455 q=-0.0 size=N/A time=00:13:42.27 bitrate=N/A speed=  19x    frame=19968 fps=455 q=-0.0 size=N/A time=00:13:52.87 bitrate=N/A speed=  19x    frame=20249 fps=456 q=-0.0 size=N/A time=00:14:04.55 bitrate=N/A speed=  19x    frame=20449 fps=455 q=-0.0 size=N/A time=00:14:12.89 bitrate=N/A speed=  19x    frame=20697 fps=456 q=-0.0 size=N/A time=00:14:23.23 bitrate=N/A speed=  19x    frame=20934 fps=456 q=-0.0 size=N/A time=00:14:33.12 bitrate=N/A speed=  19x    frame=21175 fps=456 q=-0.0 size=N/A time=00:14:43.17 bitrate=N/A speed=  19x    frame=21418 fps=456 q=-0.0 size=N/A time=00:14:53.30 bitrate=N/A speed=  19x    frame=21649 fps=456 q=-0.0 size=N/A time=00:15:02.94 bitrate=N/A speed=  19x    frame=21897 fps=456 q=-0.0 size=N/A time=00:15:13.28 bitrate=N/A speed=  19x    frame=22161 fps=457 q=-0.0 size=N/A time=00:15:24.29 bitrate=N/A speed=19.1x    frame=22415 fps=457 q=-0.0 size=N/A time=00:15:34.89 bitrate=N/A speed=19.1x    frame=22674 fps=458 q=-0.0 size=N/A time=00:15:45.69 bitrate=N/A speed=19.1x    frame=22924 fps=458 q=-0.0 size=N/A time=00:15:56.12 bitrate=N/A speed=19.1x    frame=23165 fps=458 q=-0.0 size=N/A time=00:16:06.17 bitrate=N/A speed=19.1x    frame=23415 fps=458 q=-0.0 size=N/A time=00:16:16.60 bitrate=N/A speed=19.1x    frame=23670 fps=459 q=-0.0 size=N/A time=00:16:27.23 bitrate=N/A speed=19.1x    frame=23921 fps=459 q=-0.0 size=N/A time=00:16:37.70 bitrate=N/A speed=19.1x    frame=24173 fps=459 q=-0.0 size=N/A time=00:16:48.21 bitrate=N/A speed=19.1x    frame=24410 fps=459 q=-0.0 size=N/A time=00:16:58.10 bitrate=N/A speed=19.1x    frame=24647 fps=459 q=-0.0 size=N/A time=00:17:07.98 bitrate=N/A speed=19.2x    frame=24895 fps=459 q=-0.0 size=N/A time=00:17:18.32 bitrate=N/A speed=19.2x    frame=25144 fps=460 q=-0.0 size=N/A time=00:17:28.71 bitrate=N/A speed=19.2x    frame=25412 fps=460 q=-0.0 size=N/A time=00:17:39.89 bitrate=N/A speed=19.2x    frame=25675 fps=461 q=-0.0 size=N/A time=00:17:50.86 bitrate=N/A speed=19.2x    frame=25952 fps=461 q=-0.0 size=N/A time=00:18:02.41 bitrate=N/A speed=19.2x    frame=26228 fps=462 q=-0.0 size=N/A time=00:18:13.92 bitrate=N/A speed=19.3x    frame=26458 fps=462 q=-0.0 size=N/A time=00:18:23.51 bitrate=N/A speed=19.3x    frame=26672 fps=461 q=-0.0 size=N/A time=00:18:32.44 bitrate=N/A speed=19.2x    frame=26885 fps=461 q=-0.0 size=N/A time=00:18:41.32 bitrate=N/A speed=19.2x    frame=27165 fps=462 q=-0.0 size=N/A time=00:18:53.00 bitrate=N/A speed=19.3x    frame=27439 fps=462 q=-0.0 size=N/A time=00:19:04.43 bitrate=N/A speed=19.3x    frame=27704 fps=463 q=-0.0 size=N/A time=00:19:15.48 bitrate=N/A speed=19.3x    frame=27940 fps=463 q=-0.0 size=N/A time=00:19:25.33 bitrate=N/A speed=19.3x    frame=28191 fps=463 q=-0.0 size=N/A time=00:19:35.79 bitrate=N/A speed=19.3x    frame=28444 fps=463 q=-0.0 size=N/A time=00:19:46.35 bitrate=N/A speed=19.3x    frame=28711 fps=464 q=-0.0 size=N/A time=00:19:57.48 bitrate=N/A speed=19.3x    frame=28954 fps=464 q=-0.0 size=N/A time=00:20:07.62 bitrate=N/A speed=19.3x    frame=29209 fps=464 q=-0.0 size=N/A time=00:20:18.25 bitrate=N/A speed=19.4x    frame=29461 fps=464 q=-0.0 size=N/A time=00:20:28.76 bitrate=N/A speed=19.4x    frame=29707 fps=464 q=-0.0 size=N/A time=00:20:39.02 bitrate=N/A speed=19.4x    frame=29911 fps=464 q=-0.0 size=N/A time=00:20:47.53 bitrate=N/A speed=19.3x    frame=30117 fps=463 q=-0.0 size=N/A time=00:20:56.12 bitrate=N/A speed=19.3x    frame=30344 fps=463 q=-0.0 size=N/A time=00:21:05.59 bitrate=N/A speed=19.3x    frame=30542 fps=462 q=-0.0 size=N/A time=00:21:13.85 bitrate=N/A speed=19.3x    frame=30797 fps=463 q=-0.0 size=N/A time=00:21:24.49 bitrate=N/A speed=19.3x    frame=31061 fps=463 q=-0.0 size=N/A time=00:21:35.50 bitrate=N/A speed=19.3x    frame=31311 fps=463 q=-0.0 size=N/A time=00:21:45.92 bitrate=N/A speed=19.3x    frame=31550 fps=463 q=-0.0 size=N/A time=00:21:55.89 bitrate=N/A speed=19.3x    frame=31793 fps=463 q=-0.0 size=N/A time=00:22:06.03 bitrate=N/A speed=19.3x    frame=32026 fps=463 q=-0.0 size=N/A time=00:22:15.75 bitrate=N/A speed=19.3x    frame=32287 fps=463 q=-0.0 size=N/A time=00:22:26.63 bitrate=N/A speed=19.3x    frame=32516 fps=463 q=-0.0 size=N/A time=00:22:36.18 bitrate=N/A speed=19.3x    frame=32740 fps=463 q=-0.0 size=N/A time=00:22:45.53 bitrate=N/A speed=19.3x    frame=32970 fps=463 q=-0.0 size=N/A time=00:22:55.12 bitrate=N/A speed=19.3x    frame=33201 fps=463 q=-0.0 size=N/A time=00:23:04.75 bitrate=N/A speed=19.3x    frame=33437 fps=463 q=-0.0 size=N/A time=00:23:14.60 bitrate=N/A speed=19.3x    frame=33634 fps=462 q=-0.0 size=N/A time=00:23:22.81 bitrate=N/A speed=19.3x    frame=33845 fps=462 q=-0.0 size=N/A time=00:23:31.61 bitrate=N/A speed=19.3x    frame=34047 fps=461 q=-0.0 size=N/A time=00:23:40.04 bitrate=N/A speed=19.2x    frame=34189 fps=460 q=-0.0 size=N/A time=00:23:45.96 bitrate=N/A speed=19.2x    frame=34361 fps=459 q=-0.0 size=N/A time=00:23:53.14 bitrate=N/A speed=19.2x    frame=34598 fps=459 q=-0.0 size=N/A time=00:24:03.02 bitrate=N/A speed=19.2x    frame=34813 fps=459 q=-0.0 size=N/A time=00:24:11.99 bitrate=N/A speed=19.1x    [Parsed_psnr_10 @ 000002887c11b680] PSNR y:48.629038 u:49.831894 v:49.339370 average:48.923095 min:41.105304 max:inf
[out#0/null @ 000002887b855b80] video:15006KiB audio:273164KiB subtitle:0KiB other streams:0KiB global headers:0KiB muxing overhead: unknown
frame=34923 fps=459 q=-0.0 Lsize=N/A time=00:24:16.58 bitrate=N/A speed=19.1x    
